<svg width="187" height="125" viewBox="0 0 187 125" fill="none" xmlns="http://www.w3.org/2000/svg">
<path d="M147.69 52.27C146.01 52.27 144.51 52.02 143.19 51.52C141.89 51.02 140.87 50.32 140.13 49.42C139.41 48.52 139.05 47.49 139.05 46.33C139.05 45.33 139.38 44.61 140.04 44.17C140.72 43.73 141.82 43.51 143.34 43.51C143.28 43.89 143.25 44.37 143.25 44.95C143.25 46.11 143.62 46.99 144.36 47.59C145.12 48.17 146.23 48.46 147.69 48.46C150.59 48.46 152.04 47.59 152.04 45.85C152.04 44.05 150.8 43.15 148.32 43.15H147.36C146.8 43.15 146.35 42.98 146.01 42.64C145.67 42.3 145.5 41.85 145.5 41.29C145.5 40.73 145.67 40.28 146.01 39.94C146.35 39.6 146.8 39.43 147.36 39.43H148.35C149.39 39.43 150.16 39.23 150.66 38.83C151.18 38.41 151.44 37.78 151.44 36.94C151.44 36.18 151.12 35.59 150.48 35.17C149.86 34.75 148.97 34.54 147.81 34.54C146.51 34.54 145.5 34.77 144.78 35.23C144.08 35.67 143.73 36.3 143.73 37.12C143.73 37.46 143.77 37.91 143.85 38.47C142.59 38.51 141.56 38.3 140.76 37.84C139.96 37.38 139.56 36.76 139.56 35.98C139.56 34.96 139.9 34.05 140.58 33.25C141.28 32.45 142.25 31.83 143.49 31.39C144.75 30.95 146.19 30.73 147.81 30.73C149.43 30.73 150.85 30.99 152.07 31.51C153.29 32.01 154.23 32.73 154.89 33.67C155.57 34.61 155.91 35.7 155.91 36.94C155.91 38.76 154.98 40.21 153.12 41.29C154.34 41.85 155.21 42.48 155.73 43.18C156.25 43.86 156.51 44.75 156.51 45.85C156.51 47.11 156.14 48.23 155.4 49.21C154.66 50.17 153.62 50.92 152.28 51.46C150.96 52 149.43 52.27 147.69 52.27ZM161.44 52C160.82 52 160.29 51.81 159.85 51.43C159.43 51.05 159.22 50.57 159.22 49.99V33.01C159.22 32.43 159.43 31.95 159.85 31.57C160.29 31.19 160.82 31 161.44 31H167.98C169.78 31 171.37 31.35 172.75 32.05C174.13 32.73 175.2 33.7 175.96 34.96C176.74 36.22 177.13 37.66 177.13 39.28V43.66C177.13 45.28 176.74 46.73 175.96 48.01C175.2 49.27 174.12 50.25 172.72 50.95C171.34 51.65 169.76 52 167.98 52H161.44ZM167.68 48.22C169.34 48.22 170.59 47.84 171.43 47.08C172.29 46.32 172.72 45.2 172.72 43.72V39.22C172.72 37.76 172.29 36.66 171.43 35.92C170.59 35.16 169.34 34.78 167.68 34.78H163.63V48.22H167.68Z" fill="#2EEBC9"/>
<path d="M119.384 30.0272C122.384 30.0272 124.874 30.6872 126.854 32.0072C128.774 33.3872 130.064 35.3372 130.724 37.8572L144.854 93.2972C143.414 94.1972 141.554 94.6472 139.274 94.6472C137.054 94.6472 135.224 94.1072 133.784 93.0272C132.344 92.0072 131.384 90.5372 130.904 88.6172L123.344 54.5072L125.144 47.5772L124.334 47.3072L112.094 90.5972C111.734 91.8572 111.104 92.8472 110.204 93.5672C109.244 94.2872 108.104 94.6472 106.784 94.6472C105.464 94.6472 104.324 94.2872 103.364 93.5672C102.404 92.8472 101.744 91.8572 101.384 90.5972L91.5741 53.6972L93.2841 46.4072L92.2941 46.1372L82.5741 88.6172C82.1541 90.5372 81.2541 92.0072 79.8741 93.0272C78.4341 94.1072 76.5741 94.6472 74.2941 94.6472C72.0741 94.6472 70.1841 94.1972 68.6241 93.2972L82.8441 37.8572C83.5041 35.3372 84.8241 33.3872 86.8041 32.0072C88.7241 30.6872 91.1841 30.0272 94.1841 30.0272L107.864 80.0672L108.674 79.7972L107.234 74.4872L119.384 30.0272Z" fill="white"/>
<path d="M28.89 94.81C25.89 94.81 23.4 94.15 21.42 92.83C19.5 91.45 18.21 89.5 17.55 86.98L3.42 31.54C4.86 30.64 6.72 30.19 9 30.19C11.22 30.19 13.05 30.73 14.49 31.81C15.93 32.83 16.89 34.3 17.37 36.22L24.93 70.33L23.13 77.26L23.94 77.53L36.18 34.24C36.54 32.98 37.17 31.99 38.07 31.27C39.03 30.55 40.17 30.19 41.49 30.19C42.81 30.19 43.95 30.55 44.91 31.27C45.87 31.99 46.53 32.98 46.89 34.24L56.7 71.14L54.99 78.43L55.98 78.7L65.7 36.22C66.12 34.3 67.02 32.83 68.4 31.81C69.84 30.73 71.7 30.19 73.98 30.19C76.2 30.19 78.09 30.64 79.65 31.54L65.43 86.98C64.77 89.5 63.45 91.45 61.47 92.83C59.55 94.15 57.09 94.81 54.09 94.81L40.41 44.77L39.6 45.04L41.04 50.35L28.89 94.81Z" fill="white"/>
</svg>
